# xmcd
#
# Track frame offsets:
#	150
#	17575
#	44960
#	62982
#	89245
#	106767
#	125312
#	147705
#	169155
#	181887
#	201902
#	220435
#	239160
#	259845
#
# Disc length: 3736 seconds
#
# Revision: 1
# Processed by: cddbd v1.4PL0 Copyright (c) Steve Scherf et al.
# Submitted via: audiograbber 1.81.02
#
DISCID=e40e960e
DTITLE=Lee Ann Womack - Something Worth Leaving Behind
DYEAR=2002
DGENRE=Country
TTITLE0=Something Worth Leaving Behind
TTITLE1=I Saw Your Light
TTITLE2=When You Gonna Run To Me
TTITLE3=Talk To Me
TTITLE4=Forever Everyday
TTITLE5=Orphan Train
TTITLE6=I Need You
TTITLE7=You Should've Lied
TTITLE8=He'll Be Back
TTITLE9=Surrender
TTITLE10=Blame It On Me
TTITLE11=Closing This Memory Down
TTITLE12=Something Worth Leaving Behind
TTITLE13=Mendocino Country Line
EXTD=
EXTT0=
EXTT1=
EXTT2=
EXTT3=
EXTT4=
EXTT5=
EXTT6=
EXTT7=
EXTT8=
EXTT9=
EXTT10=
EXTT11=
EXTT12=
EXTT13=
PLAYORDER=
